<svg width="32" height="32" viewBox="0 0 32 32" fill="none" xmlns="http://www.w3.org/2000/svg">
<path fill-rule="evenodd" clip-rule="evenodd" d="M5.48191 6.33353C6.99225 4.74523 7.52602 4.29976 8.16963 4.09244C8.61505 3.97593 9.08218 3.96946 9.53066 4.07359C10.1211 4.24493 10.2773 4.37515 12.2132 6.30098C13.9141 7.99208 14.084 8.17541 14.2471 8.50609C14.5588 9.08653 14.6075 9.77224 14.3809 10.3908C14.2093 10.862 13.9656 11.1738 12.9341 12.207L12.2613 12.8803C12.0846 13.0596 12.0431 13.3318 12.1583 13.5554C13.6531 16.1012 15.7738 18.2242 18.3198 19.7235C18.6129 19.8802 18.9738 19.8296 19.2123 19.5985L19.8594 18.9628C20.2593 18.5536 20.6828 18.168 21.1277 17.808C21.8265 17.3797 22.6972 17.3414 23.431 17.7069C23.7897 17.8782 23.9081 17.9845 25.6622 19.7321C27.4712 21.5329 27.5227 21.5894 27.7217 22.0023C28.0964 22.6859 28.0925 23.5137 27.7114 24.1937C27.5175 24.5775 27.3991 24.7163 26.3813 25.7546C25.7669 26.3817 25.1885 26.954 25.0958 27.0379C24.2562 27.7319 23.179 28.0723 22.0923 27.9871C20.104 27.8062 18.1796 27.1927 16.4542 26.1898C12.6322 24.1683 9.3786 21.223 6.99054 17.6229C6.4704 16.8695 6.00797 16.078 5.6072 15.2551C4.53208 13.4155 3.97688 11.3193 4.00074 9.18972C4.08282 8.07562 4.61801 7.04358 5.48191 6.33353Z" stroke="#7D818E" stroke-width="1.5" stroke-linecap="round" stroke-linejoin="round"/>
</svg>
