<svg width="32" height="32" viewBox="0 0 32 32" fill="none" xmlns="http://www.w3.org/2000/svg">
<path d="M16.5842 27.6965C18.6262 26.0119 25.335 19.9608 25.335 13.173C25.335 8.01824 21.1563 3.83948 16.0015 3.83948C10.8467 3.83948 6.66797 8.01824 6.66797 13.173C6.66797 19.9608 13.3768 26.0119 15.4188 27.6965C15.7609 27.9787 16.2421 27.9787 16.5842 27.6965Z" stroke="#7D818E" stroke-width="1.5" stroke-linecap="round" stroke-linejoin="round"/>
<path d="M16.0025 16.4478C18.1138 16.4478 19.8254 14.7363 19.8254 12.625C19.8254 10.5137 18.1138 8.80212 16.0025 8.80212C13.8912 8.80212 12.1797 10.5137 12.1797 12.625C12.1797 14.7363 13.8912 16.4478 16.0025 16.4478Z" stroke="#7D818E" stroke-width="1.5" stroke-linecap="round" stroke-linejoin="round"/>
</svg>
